HIERARCHY
ROOT Hips
{
	OFFSET	0.00	0.00	0.00
	CHANNELS 6 Xposition Yposition Zposition Zrotation Xrotation Yrotation
	JOINT LeftUpLeg
	{
		OFFSET	 0.126116	-0.065224	 0.014019
		CHANNELS 3 Zrotation Xrotation Yrotation
		JOINT LeftLeg
		{
			OFFSET	 0.000000	 0.569914	 0.000000
			CHANNELS 3 Zrotation Xrotation Yrotation
			JOINT LeftFoot
			{
				OFFSET	 0.000000	 0.544423	 0.000000
				CHANNELS 3 Zrotation Xrotation Yrotation
				JOINT LeftToeBase
				{
					OFFSET	 0.000000	 0.207117	 0.000000
					CHANNELS 3 Zrotation Xrotation Yrotation
					End Site
					{
						OFFSET	 0.000000	 0.207117	 0.000000
					}
				}
			}
		}
	}
	JOINT RightUpLeg
	{
		OFFSET	-0.124023	-0.065224	 0.008373
		CHANNELS 3 Zrotation Xrotation Yrotation
		JOINT RightLeg
		{
			OFFSET	 0.000000	 0.570047	 0.000000
			CHANNELS 3 Zrotation Xrotation Yrotation
			JOINT RightFoot
			{
				OFFSET	 0.000000	 0.544354	 0.000000
				CHANNELS 3 Zrotation Xrotation Yrotation
				JOINT RightToeBase
				{
					OFFSET	 0.000000	 0.207540	 0.000000
					CHANNELS 3 Zrotation Xrotation Yrotation
					End Site
					{
						OFFSET	 0.000000	 0.207540	 0.000000
					}
				}
			}
		}
	}
	JOINT Spine
	{
		OFFSET	 0.000184	 0.117403	 0.007763
		CHANNELS 3 Zrotation Xrotation Yrotation
		JOINT Spine1
		{
			OFFSET	 0.000000	 0.137269	 0.000000
			CHANNELS 3 Zrotation Xrotation Yrotation
			JOINT Spine2
			{
				OFFSET	 0.000000	 0.156879	 0.000000
				CHANNELS 3 Zrotation Xrotation Yrotation
				JOINT LeftShoulder
				{
					OFFSET	 0.080501	 0.160143	 0.002496
					CHANNELS 3 Zrotation Xrotation Yrotation
					JOINT LeftArm
					{
						OFFSET	 0.000000	 0.164363	 0.000000
						CHANNELS 3 Zrotation Xrotation Yrotation
						JOINT LeftForeArm
						{
							OFFSET	 0.000000	 0.364576	 0.000000
							CHANNELS 3 Zrotation Xrotation Yrotation
							JOINT LeftHand
							{
								OFFSET	 0.000000	 0.360812	 0.000000
								CHANNELS 3 Zrotation Xrotation Yrotation
								JOINT LeftHandIndex1
								{
									OFFSET	 0.000000	 0.086006	 0.000000
									CHANNELS 3 Zrotation Xrotation Yrotation
									JOINT LeftHandIndex2
									{
										OFFSET	 0.000000	 0.047237	 0.000000
										CHANNELS 3 Zrotation Xrotation Yrotation
										JOINT LeftHandIndex3
										{
											OFFSET	-0.004284	 0.038165	 0.000551
											CHANNELS 3 Zrotation Xrotation Yrotation
											End Site
											{
												OFFSET	-0.004284	 0.038165	 0.000551
											}
										}
									}
								}
							}
						}
					}
				}
				JOINT Neck
				{
					OFFSET	 0.000000	 0.176489	 0.000000
					CHANNELS 3 Zrotation Xrotation Yrotation
					JOINT Head
					{
						OFFSET	 0.000000	 0.077941	 0.001747
						CHANNELS 3 Zrotation Xrotation Yrotation
						End Site
						{
							OFFSET	 0.000000	 0.077941	 0.001747
						}
					}
				}
				JOINT RightShoulder
				{
					OFFSET	-0.080363	 0.159706	-0.000306
					CHANNELS 3 Zrotation Xrotation Yrotation
					JOINT RightArm
					{
						OFFSET	 0.000000	 0.164196	 0.000000
						CHANNELS 3 Zrotation Xrotation Yrotation
						JOINT RightForeArm
						{
							OFFSET	 0.000000	 0.365611	 0.000000
							CHANNELS 3 Zrotation Xrotation Yrotation
							JOINT RightHand
							{
								OFFSET	 0.000000	 0.360648	 0.000000
								CHANNELS 3 Zrotation Xrotation Yrotation
								JOINT RightHandIndex1
								{
									OFFSET	 0.000000	 0.069977	 0.000000
									CHANNELS 3 Zrotation Xrotation Yrotation
									JOINT RightHandIndex2
									{
										OFFSET	 0.000000	 0.052305	 0.000000
										CHANNELS 3 Zrotation Xrotation Yrotation
										JOINT RightHandIndex3
										{
											OFFSET	 0.009002	 0.042196	 0.000782
											CHANNELS 3 Zrotation Xrotation Yrotation
											End Site
											{
												OFFSET	 0.009002	 0.042196	 0.000782
											}
										}
									}
								}
							}
						}
					}
				}
			}
		}
	}
}
MOTION
Frames:    8
Frame Time: 0.03333334
-0.129257	 1.190126	-0.275897	 3.435471	-3.632727	-174.338700	-160.940800	 26.379950	-29.358150	 13.740360	-41.738480	 14.131460	 19.610900	 75.049450	-22.754210	 1.149137	 26.514710	-2.654562	 166.802100	-6.657957	 42.556170	-2.030933	-25.068210	 11.355860	 49.144100	 80.023680	-36.350360	-1.503619	 31.122340	 2.806322	-4.339512	 5.447646	 35.434990	-8.498587	 5.031316	 8.593317	 7.805105	-4.149379	-13.451090	-105.277900	 3.116686	 92.747660	 36.426920	 50.843480	-6.213278	 9.960241	-0.254640	-13.944370	-2.130471	 19.514440	 108.391700	 3.203930	 49.454040	-1.688183	-7.640981	 55.540330	 7.449530	 6.418629	 30.150030	 0.061704	 4.092425	-8.948211	-2.385447	 1.455546	-7.454937	-7.487388	 109.705200	 21.860550	-97.869690	 8.546668	 32.769240	-22.521510	-31.122050	-0.968279	 13.636570	 12.892050	 5.716105	-58.873940	-3.609178	 8.453944	 0.077467	 13.115370	 29.316910	-6.785920	-8.535303	 20.911320	-1.024693
-0.103495	 1.195989	-0.275215	 2.330229	-2.888528	-177.224800	-160.477200	 23.255740	-32.190650	 12.387650	-38.861500	 13.048420	 15.801680	 74.249680	-19.633760	 1.149227	 26.515950	-2.654596	 167.504000	-7.744558	 40.519950	-1.793763	-22.448060	 11.476770	 46.902650	 79.946190	-35.055760	-1.382098	 29.583050	 2.750911	-3.063818	 5.921035	 26.434190	-7.715518	 4.600504	 7.857363	 7.542896	-3.597286	-12.693880	-105.640600	 3.395626	 92.734790	 30.195390	 52.719140	-0.538776	 8.074204	-0.254832	-8.750044	-3.619705	 19.045010	 103.889800	 2.984752	 47.195790	-1.522640	-7.329145	 53.314070	 6.946756	 6.340179	 28.374540	 0.062093	 4.076215	-8.493348	-2.063809	 0.984345	-6.947426	-5.810173	 110.909500	 20.721180	-97.770080	 10.210180	 32.256150	-22.695230	-28.384790	-0.948402	 8.482064	 19.152550	 9.695777	-50.723830	-3.141986	 6.887549	 0.354817	 12.844650	 26.628420	-6.084321	-8.529269	 17.629110	-0.812877
-0.081486	 1.199368	-0.271579	 1.770616	-2.408221	-179.043100	-159.916400	 21.241420	-33.935590	 11.419690	-36.638140	 11.329120	 9.714604	 73.445310	-14.013000	 1.149578	 26.520750	-2.654736	 168.203400	-8.050302	 38.928570	-1.691480	-21.285900	 11.285160	 45.673440	 79.928540	-33.889240	-1.353434	 29.213300	 2.738281	-1.712412	 6.248301	 17.672720	-7.073576	 4.274542	 7.279873	 7.363410	-3.381785	-12.236790	-106.171000	 3.658319	 92.730780	 34.903470	 50.130850	-3.481833	 6.186450	-0.254020	-3.588345	-2.809947	 20.170090	 92.118610	 2.364842	 40.395770	-1.092384	-6.619013	 46.305980	 5.619217	 6.099386	 22.757570	 0.045947	 4.032754	-8.290631	-1.813615	 0.674445	-6.791359	-4.661675	 112.158800	 19.662580	-97.684590	 10.700700	 33.394710	-21.715690	-24.234440	-0.875352	 3.381483	 17.911770	 12.829980	-43.580750	-2.908375	 6.083002	 0.510164	 12.721670	 25.240680	-5.734213	-8.522061	 16.078300	-0.713967
-0.058048	 1.202105	-0.265859	 1.374360	-2.014203	 179.393600	-159.228500	 19.391330	-35.443730	 10.439920	-34.240510	 9.225618	 2.708799	 72.222500	-7.440098	 1.150022	 26.526810	-2.654912	 168.961200	-7.943659	 37.389260	-1.648861	-20.796150	 10.980340	 45.026890	 80.100170	-33.084420	-1.348649	 29.151390	 2.736188	-0.229711	 6.304675	 8.596773	-6.606060	 4.095760	 6.820014	 7.261908	-3.328761	-11.839060	-106.777900	 3.930937	 92.731220	 44.811210	 42.310330	-8.898861	 5.472186	-0.246745	 1.863799	-2.638727	 23.419360	 75.504720	 1.738525	 31.859270	-0.721724	-6.118115	 37.466020	 4.295293	 5.806049	 15.705880	-0.008204	 3.979164	-8.147704	-1.569600	 0.394076	-6.726838	-3.597191	 113.485200	 18.569180	-97.579480	 9.271464	 36.646440	-19.734420	-17.493930	-0.650200	-1.979924	 12.558570	 13.958600	-34.953410	-2.727367	 5.447753	 0.639461	 12.631820	 24.140810	-5.461925	-8.514950	 14.926550	-0.640861
-0.032317	 1.204851	-0.258237	 0.988511	-1.579572	 177.679900	-158.601800	 17.292830	-37.066840	 9.355158	-31.404190	 6.787177	-4.245408	 70.501500	-0.848804	 1.150517	 26.533550	-2.655108	 169.691800	-7.598730	 35.657270	-1.642126	-20.718450	 10.618250	 44.989340	 80.428740	-32.828330	-1.343326	 29.082440	 2.733865	 1.374937	 6.018497	-1.151917	-6.297990	 4.073628	 6.422924	 7.230790	-3.367248	-11.398550	-107.453800	 4.234473	 92.735140	 51.666700	 32.063360	-9.986346	 7.382148	-0.232424	 7.923031	 0.085349	 25.788700	 54.275260	 1.164523	 22.345460	-0.458909	-5.885306	 27.609810	 3.067695	 5.480047	 7.851182	-0.109708	 3.918789	-7.988823	-1.297835	 0.083833	-6.659687	-2.412203	 114.955000	 17.354750	-97.432070	 4.407791	 40.637310	-15.058310	-8.033967	-0.201896	-7.946724	 3.844352	 13.967140	-24.303540	-2.524334	 4.740894	 0.785651	 12.539320	 22.915660	-5.163599	-8.505293	 13.644110	-0.559724
-0.011612	 1.207154	-0.250969	 0.692100	-1.181133	 176.149300	-158.293600	 15.493040	-38.451260	 8.485455	-28.997580	 4.641847	-9.394583	 68.881770	 4.120011	 1.151115	 26.541690	-2.655346	 170.039700	-6.982949	 34.141140	-1.709946	-21.497260	 10.199300	 46.008400	 81.040530	-33.742740	-1.338451	 29.019170	 2.731743	 2.734322	 5.497081	-10.189790	-5.955791	 4.044122	 5.974363	 7.182333	-3.387760	-11.026580	-108.123500	 4.517521	 92.739780	 52.328590	 26.263310	-8.386994	 9.406847	-0.223533	 13.994430	 6.280697	 23.390580	 34.415260	 0.782020	 15.063640	-0.338204	-5.870230	 20.081390	 2.220953	 5.222858	 1.816771	-0.217158	 3.847328	-7.864479	-1.044531	-0.187726	-6.587873	-1.402394	 116.267600	 16.234120	-97.270640	 5.610699	 41.106810	-14.089450	-10.202890	-0.200416	-14.018260	 1.302244	 13.363030	-13.492010	-2.376661	 4.238434	 0.894804	 12.478230	 22.044170	-4.954357	-8.497304	 12.729860	-0.502006
-0.000049	 1.208632	-0.245857	 0.652039	-0.857533	 175.111300	-158.108300	 14.423230	-39.287700	 8.052064	-27.750530	 3.521602	-11.965180	 67.880530	 6.495518	 1.151969	 26.553280	-2.655684	 170.234500	-6.598310	 33.409480	-1.763693	-22.108370	 9.739991	 44.334640	 81.598000	-32.757530	-1.334837	 28.972120	 2.730173	 3.750757	 5.022985	-17.696290	-5.489031	 3.883346	 5.553211	 7.071691	-3.318422	-10.837720	-108.761400	 4.740940	 92.739650	 50.273680	 24.461160	-7.596281	 11.574350	-0.222238	 20.033890	 12.432020	 19.972340	 19.088670	 0.720937	 13.542260	-0.333052	-5.881693	 18.540630	 2.052938	 5.167075	 0.539191	-0.243331	 3.750021	-7.832819	-0.845228	-0.357284	-6.494728	-0.870352	 117.154400	 15.374500	-97.138580	 5.266718	 40.245700	-12.995940	-12.416170	-0.200787	-20.057430	-0.195361	 8.734607	-2.841992	-2.380731	 4.280673	 0.899295	 12.483240	 22.117840	-4.971957	-8.497933	 12.798710	-0.506352
 0.009545	 1.209899	-0.240798	 0.631737	-0.559996	 174.177600	-158.005300	 13.558920	-40.042940	 7.721818	-26.779740	 2.512574	-14.102450	 67.042380	 8.539224	 1.152737	 26.563720	-2.655989	 170.378000	-6.221966	 32.746490	-1.814150	-22.677360	 9.331945	 42.504620	 82.046280	-31.532060	-1.331586	 28.929750	 2.728764	 4.512503	 4.554097	-23.296980	-5.075006	 3.720326	 5.118421	 6.975952	-3.246716	-10.667140	-109.336200	 4.942156	 92.741680	 47.547950	 23.576320	-6.760745	 13.475480	-0.222165	 25.265950	 18.040270	 15.893770	 5.822471	 0.666345	 12.171670	-0.329858	-5.895983	 17.152600	 1.902540	 5.116324	-0.611639	-0.267974	 3.662298	-7.804594	-0.665702	-0.510595	-6.411755	-0.391017	 117.952100	 14.601920	-97.008310	 4.332328	 39.142260	-11.537450	-14.349730	-0.201506	-25.289090	-1.124025	 5.027973	 6.608655	-2.384398	 4.318712	 0.903344	 12.487780	 22.184170	-4.987822	-8.498498	 12.860720	-0.510266
